<?xml version="1.0" encoding="UTF-8" standalone="no"?>
<!DOCTYPE svg PUBLIC "-//W3C//DTD SVG 1.1//EN" "http://www.w3.org/Graphics/SVG/1.1/DTD/svg11.dtd">
<svg width="100%" height="100%" viewBox="0 0 448 512" version="1.1" xmlns="http://www.w3.org/2000/svg" xmlns:xlink="http://www.w3.org/1999/xlink" xml:space="preserve" xmlns:serif="http://www.serif.com/" style="fill-rule:evenodd;clip-rule:evenodd;stroke-linejoin:round;stroke-miterlimit:2;">
    <path d="M323.5,51.25C302.8,70.5 284,90.75 267.4,111.1C240.1,73.62 206.2,35.5 168,0C69.75,91.12 0,210 0,281.6C0,408.9 100.2,512 224,512C347.8,512 448,408.9 448,281.6C448,228.4 396,118.5 323.5,51.25ZM304.1,391.9C282.4,407 255.8,416 226.9,416C154.77,416 96,368.27 96,290.8C96,252.17 120.24,218.16 168.74,160C175.74,168 267.62,285.4 267.62,285.4L326.25,218.52C330.375,225.27 334.117,232.04 337.49,238.42C364.9,290.6 353.4,357.4 304.1,391.9Z" style="fill:url(#_Linear1);fill-rule:nonzero;"/>
    <defs>
        <linearGradient id="_Linear1" x1="0" y1="0" x2="1" y2="0" gradientUnits="userSpaceOnUse" gradientTransform="matrix(448,0,0,512,0,256)"><stop offset="0" style="stop-color:rgb(255,67,1);stop-opacity:1"/><stop offset="1" style="stop-color:rgb(255,153,1);stop-opacity:1"/></linearGradient>
    </defs>
</svg>
